<svg xmlns="http://www.w3.org/2000/svg" width="24" height="20" viewBox="0 0 24 20">
  <defs>
    <style>
      .cls-1 {
        fill: #2aacc8;
        fill-rule: evenodd;
      }
    </style>
  </defs>
  <path id="clients" class="cls-1" d="M737.825,1234.01h-1.558l-3.151-2.86a8.262,8.262,0,0,0,3.547-2.16v-0.62c-0.655.12-2.129-.39-1.516-0.69a1.294,1.294,0,0,0,.6-0.73,2.144,2.144,0,0,1-.105-0.55l-0.014-.27a0.448,0.448,0,0,1-.117.02,0.384,0.384,0,0,1-.385-0.39v-0.79a0.391,0.391,0,0,1,.385-0.39c0.012,0,.022.01,0.033,0.01l-0.028-.51a2.328,2.328,0,1,1,4.621,0l-0.029.51c0.012,0,.021-0.01.032-0.01a0.392,0.392,0,0,1,.386.39v0.79a0.385,0.385,0,0,1-.386.39,0.455,0.455,0,0,1-.117-0.02l-0.015.27a2.181,2.181,0,0,1-.136.62,1.258,1.258,0,0,0,.571.66c0.6,0.29-.775.78-1.455,0.7v0.61a8.411,8.411,0,0,0,3.853,2.27,3.054,3.054,0,0,1,1.157,1.83v0.92h-6.172Zm-3.87-6.55a0.62,0.62,0,0,1-.193-0.04l-0.025.43a3.483,3.483,0,0,1-1.677,2.77v1.37a13.958,13.958,0,0,0,6.335,3.61s1.9,1.47,1.9,2.93v1.46H720v-1.46c0-1.46,1.9-2.93,1.9-2.93a13.964,13.964,0,0,0,6.335-3.61v-1.37a3.481,3.481,0,0,1-1.68-2.77l-0.024-.43a0.608,0.608,0,0,1-.191.04,0.631,0.631,0,0,1-.634-0.63v-1.25a0.631,0.631,0,0,1,.634-0.63c0.019,0,.035.01,0.053,0.01l-0.045-.81a3.815,3.815,0,1,1,7.6,0l-0.047.81c0.019,0,.034-0.01.053-0.01a0.631,0.631,0,0,1,.634.63v1.25A0.631,0.631,0,0,1,733.955,1227.46Z" transform="translate(-720 -1220)"/>
</svg>
