<svg xmlns="http://www.w3.org/2000/svg" width="24" height="23" viewBox="0 0 24 23">
  <defs>
    <style>
      .cls-1 {
        fill: #2aacc8;
        fill-rule: evenodd;
      }
    </style>
  </defs>
  <path id="comments" class="cls-1" d="M216.668,1238.68L209,1245l1.725-5.69c-6.027-.46-10.725-4.15-10.725-8.63,0-4.79,5.373-8.68,12-8.68s12,3.89,12,8.68C224,1234.28,220.977,1237.36,216.668,1238.68ZM212,1223.81c-5.244,0-9.494,3.08-9.494,6.87s4.25,6.87,9.494,6.87,9.494-3.08,9.494-6.87S217.243,1223.81,212,1223.81Zm-4.5,6.35h9v1.49h-9v-1.49Zm0-2.97h9v1.49h-9v-1.49Zm6.759,7.42h-4.5v-1.48h4.5v1.48Z" transform="translate(-200 -1222)"/>
</svg>
